<svg width="210" height="62" viewBox="0 0 210 62" fill="none" xmlns="http://www.w3.org/2000/svg">
<path opacity="0.7" d="M48.9403 0.00381791H24.888C24.888 0.00381791 21.2911 -0.274193 17.4251 3.9145L11.0695 10.3335H48.9464V0.00381791" fill="#014CC3"/>
<path opacity="0.7" d="M0.00378024 48.5877V24.2957C0.00378024 24.2957 -0.271488 20.6631 3.87589 16.7586L10.2315 10.3396V48.5939H0.00378024" fill="#014CC3"/>
<path opacity="0.7" d="M11.0634 61.1478H35.1157C35.1157 61.1478 38.7125 61.4258 42.5785 57.2371L48.9342 50.8181H11.0634V61.1539" fill="#014CC3"/>
<path opacity="0.7" d="M59.9939 12.5698V36.8618C59.9939 36.8618 60.2692 40.4945 56.1218 44.399L49.7661 50.8179V12.5698H60" fill="#014CC3"/>
<path opacity="0.7" d="M30.0019 40.4885C35.4208 40.4885 39.8137 36.0519 39.8137 30.579C39.8137 25.1061 35.4208 20.6694 30.0019 20.6694C24.583 20.6694 20.1902 25.1061 20.1902 30.579C20.1902 36.0519 24.583 40.4885 30.0019 40.4885Z" fill="#014CC3"/>
<path d="M89.76 25.2636C88.3911 25.2636 87.1645 25.0413 86.08 24.5969C84.9956 24.1525 84.1245 23.4947 83.4667 22.6236C82.8267 21.7525 82.4889 20.7036 82.4533 19.4769H87.3067C87.3778 20.1702 87.6178 20.7036 88.0267 21.0769C88.4356 21.4325 88.9689 21.6102 89.6267 21.6102C90.3022 21.6102 90.8356 21.4591 91.2267 21.1569C91.6178 20.8369 91.8133 20.4013 91.8133 19.8502C91.8133 19.388 91.6533 19.0058 91.3333 18.7036C91.0311 18.4013 90.6489 18.1525 90.1867 17.9569C89.7422 17.7613 89.1022 17.5391 88.2667 17.2902C87.0578 16.9169 86.0711 16.5436 85.3067 16.1702C84.5422 15.7969 83.8845 15.2458 83.3333 14.5169C82.7822 13.788 82.5067 12.8369 82.5067 11.6636C82.5067 9.92135 83.1378 8.56135 84.4 7.58357C85.6622 6.58801 87.3067 6.09024 89.3333 6.09024C91.3956 6.09024 93.0578 6.58801 94.32 7.58357C95.5822 8.56135 96.2578 9.93024 96.3467 11.6902H91.4133C91.3778 11.0858 91.1556 10.6147 90.7467 10.2769C90.3378 9.92135 89.8133 9.74357 89.1733 9.74357C88.6222 9.74357 88.1778 9.89468 87.84 10.1969C87.5022 10.4813 87.3333 10.8991 87.3333 11.4502C87.3333 12.0547 87.6178 12.5258 88.1867 12.8636C88.7556 13.2013 89.6445 13.5658 90.8533 13.9569C92.0622 14.3658 93.04 14.7569 93.7867 15.1302C94.5511 15.5036 95.2089 16.0458 95.76 16.7569C96.3111 17.468 96.5867 18.3836 96.5867 19.5036C96.5867 20.5702 96.3111 21.5391 95.76 22.4102C95.2267 23.2813 94.4445 23.9747 93.4133 24.4902C92.3822 25.0058 91.1645 25.2636 89.76 25.2636ZM98.4863 17.6102C98.4863 16.0813 98.7707 14.7391 99.3396 13.5836C99.9263 12.428 100.717 11.5391 101.713 10.9169C102.708 10.2947 103.82 9.98357 105.046 9.98357C106.095 9.98357 107.011 10.1969 107.793 10.6236C108.593 11.0502 109.206 11.6102 109.633 12.3036V10.1969H114.193V25.0769H109.633V22.9702C109.188 23.6636 108.566 24.2236 107.766 24.6502C106.984 25.0769 106.068 25.2902 105.02 25.2902C103.811 25.2902 102.708 24.9791 101.713 24.3569C100.717 23.7169 99.9263 22.8191 99.3396 21.6636C98.7707 20.4902 98.4863 19.1391 98.4863 17.6102ZM109.633 17.6369C109.633 16.4991 109.313 15.6013 108.673 14.9436C108.051 14.2858 107.286 13.9569 106.38 13.9569C105.473 13.9569 104.7 14.2858 104.06 14.9436C103.437 15.5836 103.126 16.4725 103.126 17.6102C103.126 18.748 103.437 19.6547 104.06 20.3302C104.7 20.988 105.473 21.3169 106.38 21.3169C107.286 21.3169 108.051 20.988 108.673 20.3302C109.313 19.6725 109.633 18.7747 109.633 17.6369ZM124.959 13.9836H122.505V25.0769H117.945V13.9836H116.292V10.1969H117.945V9.77024C117.945 7.93912 118.47 6.55246 119.519 5.61024C120.567 4.65024 122.105 4.17024 124.132 4.17024C124.47 4.17024 124.719 4.17912 124.879 4.1969V8.06357C124.007 8.01024 123.394 8.13468 123.039 8.4369C122.683 8.73912 122.505 9.28135 122.505 10.0636V10.1969H124.959V13.9836ZM141.128 17.3969C141.128 17.8236 141.101 18.268 141.048 18.7302H130.728C130.799 19.6547 131.092 20.3658 131.608 20.8636C132.141 21.3436 132.79 21.5836 133.555 21.5836C134.692 21.5836 135.483 21.1036 135.928 20.1436H140.781C140.532 21.1213 140.079 22.0013 139.421 22.7836C138.781 23.5658 137.972 24.1791 136.995 24.6236C136.017 25.068 134.923 25.2902 133.715 25.2902C132.257 25.2902 130.959 24.9791 129.821 24.3569C128.683 23.7347 127.795 22.8458 127.155 21.6902C126.515 20.5347 126.195 19.1836 126.195 17.6369C126.195 16.0902 126.506 14.7391 127.128 13.5836C127.768 12.428 128.657 11.5391 129.795 10.9169C130.932 10.2947 132.239 9.98357 133.715 9.98357C135.155 9.98357 136.435 10.2858 137.555 10.8902C138.675 11.4947 139.546 12.3569 140.168 13.4769C140.808 14.5969 141.128 15.9036 141.128 17.3969ZM136.461 16.1969C136.461 15.4147 136.195 14.7925 135.661 14.3302C135.128 13.868 134.461 13.6369 133.661 13.6369C132.897 13.6369 132.248 13.8591 131.715 14.3036C131.199 14.748 130.879 15.3791 130.755 16.1969H136.461ZM104.187 35.3569V54.0769H99.6267V42.8502L95.44 54.0769H91.76L87.5467 42.8236V54.0769H82.9867V35.3569H88.3733L93.6267 48.3169L98.8267 35.3569H104.187ZM114.239 54.2902C112.781 54.2902 111.466 53.9791 110.293 53.3569C109.137 52.7347 108.221 51.8458 107.546 50.6902C106.888 49.5347 106.559 48.1836 106.559 46.6369C106.559 45.108 106.897 43.7658 107.573 42.6102C108.248 41.4369 109.173 40.5391 110.346 39.9169C111.519 39.2947 112.835 38.9836 114.293 38.9836C115.75 38.9836 117.066 39.2947 118.239 39.9169C119.413 40.5391 120.337 41.4369 121.013 42.6102C121.688 43.7658 122.026 45.108 122.026 46.6369C122.026 48.1658 121.679 49.5169 120.986 50.6902C120.31 51.8458 119.377 52.7347 118.186 53.3569C117.013 53.9791 115.697 54.2902 114.239 54.2902ZM114.239 50.3436C115.11 50.3436 115.848 50.0236 116.453 49.3836C117.075 48.7436 117.386 47.828 117.386 46.6369C117.386 45.4458 117.084 44.5302 116.479 43.8902C115.893 43.2502 115.164 42.9302 114.293 42.9302C113.404 42.9302 112.666 43.2502 112.079 43.8902C111.493 44.5125 111.199 45.428 111.199 46.6369C111.199 47.828 111.484 48.7436 112.053 49.3836C112.639 50.0236 113.368 50.3436 114.239 50.3436ZM133.512 39.0369C135.254 39.0369 136.641 39.6058 137.672 40.7436C138.721 41.8636 139.245 43.4102 139.245 45.3836V54.0769H134.712V45.9969C134.712 45.0013 134.454 44.228 133.938 43.6769C133.423 43.1258 132.729 42.8502 131.858 42.8502C130.987 42.8502 130.294 43.1258 129.778 43.6769C129.263 44.228 129.005 45.0013 129.005 45.9969V54.0769H124.445V39.1969H129.005V41.1702C129.467 40.5125 130.089 39.9969 130.872 39.6236C131.654 39.2325 132.534 39.0369 133.512 39.0369ZM144.707 37.6502C143.907 37.6502 143.249 37.4191 142.734 36.9569C142.236 36.4769 141.987 35.8902 141.987 35.1969C141.987 34.4858 142.236 33.8991 142.734 33.4369C143.249 32.9569 143.907 32.7169 144.707 32.7169C145.489 32.7169 146.129 32.9569 146.627 33.4369C147.143 33.8991 147.4 34.4858 147.4 35.1969C147.4 35.8902 147.143 36.4769 146.627 36.9569C146.129 37.4191 145.489 37.6502 144.707 37.6502ZM146.974 39.1969V54.0769H142.414V39.1969H146.974ZM158.572 50.2102V54.0769H156.252C154.598 54.0769 153.309 53.6769 152.385 52.8769C151.461 52.0591 150.998 50.7347 150.998 48.9036V42.9836H149.185V39.1969H150.998V35.5702H155.558V39.1969H158.545V42.9836H155.558V48.9569C155.558 49.4013 155.665 49.7213 155.878 49.9169C156.092 50.1125 156.447 50.2102 156.945 50.2102H158.572ZM167.885 54.2902C166.427 54.2902 165.112 53.9791 163.938 53.3569C162.783 52.7347 161.867 51.8458 161.192 50.6902C160.534 49.5347 160.205 48.1836 160.205 46.6369C160.205 45.108 160.543 43.7658 161.218 42.6102C161.894 41.4369 162.818 40.5391 163.992 39.9169C165.165 39.2947 166.481 38.9836 167.938 38.9836C169.396 38.9836 170.712 39.2947 171.885 39.9169C173.058 40.5391 173.983 41.4369 174.658 42.6102C175.334 43.7658 175.672 45.108 175.672 46.6369C175.672 48.1658 175.325 49.5169 174.632 50.6902C173.956 51.8458 173.023 52.7347 171.832 53.3569C170.658 53.9791 169.343 54.2902 167.885 54.2902ZM167.885 50.3436C168.756 50.3436 169.494 50.0236 170.098 49.3836C170.721 48.7436 171.032 47.828 171.032 46.6369C171.032 45.4458 170.729 44.5302 170.125 43.8902C169.538 43.2502 168.809 42.9302 167.938 42.9302C167.049 42.9302 166.312 43.2502 165.725 43.8902C165.138 44.5125 164.845 45.428 164.845 46.6369C164.845 47.828 165.129 48.7436 165.698 49.3836C166.285 50.0236 167.014 50.3436 167.885 50.3436ZM182.651 41.6769C183.184 40.8591 183.851 40.2191 184.651 39.7569C185.451 39.2769 186.34 39.0369 187.318 39.0369V43.8636H186.064C184.926 43.8636 184.073 44.1125 183.504 44.6102C182.935 45.0902 182.651 45.9436 182.651 47.1702V54.0769H178.091V39.1969H182.651V41.6769Z" fill="#014CC3"/>
</svg>
